<svg width="600" height="125" viewBox="0 0 600 125" fill="none" xmlns="http://www.w3.org/2000/svg">
<path d="M342.6 31.2V7.90002H358.2V12.6H348V17H357.7V21.5H348V26.4H358.8V31.2H342.6Z" fill="white"/>
<path d="M369.1 7.90002H363.4V31.2H369.1V7.90002Z" fill="white"/>
<path d="M389.3 31.2L379.9 15.9H379.8L380 31.2H374.5V7.90002H380.9L390.3 23.1H390.4L390.2 7.90002H395.7V31.2H389.3Z" fill="white"/>
<path d="M422.9 19.5C422.9 21.5 422.5 23.3 421.8 24.8C421 26.3 420 27.5 418.8 28.5C417.6 29.5 416.2 30.2 414.6 30.6C413 31 411.5 31.3 409.9 31.3H401.2V8H409.6C411.3 8 412.9 8.19998 414.5 8.59998C416.1 8.99998 417.5 9.6 418.8 10.5C420.1 11.4 421.1 12.6 421.8 14.1C422.5 15.4 422.9 17.3 422.9 19.5ZM417.1 19.5C417.1 18.2 416.9 17.1 416.5 16.2C416.1 15.3 415.5 14.6 414.8 14.1C414.1 13.6 413.3 13.2 412.4 13C411.5 12.8 410.5 12.7 409.6 12.7H406.8V26.3H409.5C410.5 26.3 411.5 26.2 412.4 25.9C413.3 25.7 414.2 25.3 414.9 24.8C415.6 24.3 416.2 23.6 416.6 22.7C416.8 21.8 417.1 20.8 417.1 19.5Z" fill="white"/>
<path d="M441.9 31.2V21.4H432.8V31.2H427.1V7.90002H432.8V16.7H441.9V7.90002H447.5V31.2H441.9Z" fill="white"/>
<path d="M477.2 19.4001C477.2 21.2001 476.9 22.9001 476.2 24.5001C475.6 26.0001 474.7 27.3001 473.5 28.4001C472.4 29.5001 471 30.3001 469.5 30.9001C467.9 31.5001 466.2 31.8001 464.4 31.8001C462.6 31.8001 460.9 31.5001 459.3 30.9001C457.8 30.3001 456.4 29.5001 455.3 28.4001C454.2 27.3001 453.3 26.0001 452.6 24.5001C452 23.0001 451.6 21.3001 451.6 19.4001C451.6 17.5001 451.9 15.9001 452.6 14.3001C453.2 12.8001 454.1 11.5001 455.3 10.5001C456.4 9.40009 457.8 8.60007 459.3 8.10007C460.9 7.50007 462.5 7.20007 464.4 7.20007C466.2 7.20007 467.9 7.50007 469.5 8.10007C471.1 8.70007 472.4 9.50009 473.5 10.5001C474.6 11.6001 475.5 12.8001 476.2 14.3001C476.9 15.9001 477.2 17.6001 477.2 19.4001ZM471.2 19.4001C471.2 18.4001 471 17.4001 470.7 16.6001C470.4 15.7001 469.9 15.0001 469.3 14.3001C468.7 13.7001 468 13.2001 467.2 12.8001C466.4 12.4001 465.5 12.3001 464.5 12.3001C463.5 12.3001 462.6 12.5001 461.8 12.8001C461 13.2001 460.3 13.7001 459.7 14.3001C459.1 14.9001 458.7 15.7001 458.3 16.6001C458 17.5001 457.8 18.4001 457.8 19.4001C457.8 20.5001 458 21.4001 458.3 22.3001C458.6 23.2001 459.1 24.0001 459.7 24.6001C460.3 25.2001 461 25.7001 461.8 26.1001C462.6 26.5001 463.5 26.6001 464.5 26.6001C465.5 26.6001 466.4 26.4001 467.2 26.1001C468 25.7001 468.7 25.2001 469.3 24.6001C469.9 24.0001 470.4 23.2001 470.7 22.3001C471 21.5001 471.2 20.5001 471.2 19.4001Z" fill="white"/>
<path d="M492.2 31.2H486.6L477.8 7.90002H484.1L489.5 24.4H489.6L495 7.90002H501.2L492.2 31.2Z" fill="white"/>
<path d="M503.9 31.2V7.90002H519.6V12.6H509.4V17H519V21.5H509.4V26.4H520.2V31.2H503.9Z" fill="white"/>
<path d="M539.6 31.2L530.2 15.9H530.1L530.2 31.2H524.7V7.90002H531.2L540.5 23.1H540.6L540.5 7.90002H546V31.2H539.6Z" fill="white"/>
<path d="M354.8 90.5001V109H349.1V90.5001H342.6V85.7001H361.4V90.5001H354.8Z" fill="white"/>
<path d="M364.4 109V85.7001H380.1V90.5001H369.8V94.9001H379.5V99.4001H369.8V104.2H380.7V109H364.4Z" fill="white"/>
<path d="M401.5 108.6C400 109.3 398.2 109.6 396.3 109.6C394.5 109.6 392.8 109.3 391.3 108.7C389.8 108.1 388.5 107.3 387.3 106.2C386.2 105.1 385.3 103.8 384.7 102.3C384.1 100.8 383.7 99.1 383.7 97.3C383.7 95.4 384 93.7 384.7 92.2C385.4 90.7 386.2 89.4 387.4 88.3C388.5 87.2 389.9 86.4 391.4 85.8C392.9 85.2 394.6 84.9 396.4 84.9C398.1 84.9 399.7 85.2 401.3 85.8C402.9 86.4 404.2 87.2 405.2 88.4L401.4 92.2C400.9 91.5 400.2 90.9 399.3 90.6C398.4 90.2 397.6 90.1 396.7 90.1C395.7 90.1 394.8 90.3 394 90.6C393.2 91 392.5 91.5 391.9 92.1C391.3 92.7 390.8 93.5 390.5 94.4C390.2 95.3 390 96.2 390 97.2C390 98.3 390.2 99.2 390.5 100.1C390.8 101 391.3 101.7 391.9 102.4C392.5 103 393.2 103.5 394 103.9C394.8 104.3 395.7 104.4 396.7 104.4C397.8 104.4 398.8 104.2 399.6 103.7C400.4 103.3 401.1 102.7 401.6 102L405.5 105.7C404.3 107 403 107.9 401.5 108.6Z" fill="white"/>
<path d="M423 109V99.3001H413.9V109H408.3V85.7001H413.9V94.5001H423V85.7001H428.7V109H423Z" fill="white"/>
<path d="M448.9 109L439.5 93.8001L439.6 109H434.1V85.7001H440.5L449.9 100.9H450L449.9 85.7001H455.3V109H448.9Z" fill="white"/>
<path d="M485 97.3001C485 99.1001 484.7 100.8 484 102.4C483.4 103.9 482.5 105.2 481.3 106.3C480.2 107.4 478.8 108.2 477.3 108.8C475.7 109.4 474 109.7 472.2 109.7C470.4 109.7 468.7 109.4 467.1 108.8C465.6 108.2 464.2 107.4 463.1 106.3C462 105.2 461.1 103.9 460.4 102.4C459.8 100.9 459.4 99.2001 459.4 97.3001C459.4 95.4001 459.7 93.8001 460.4 92.2001C461 90.7001 461.9 89.4001 463.1 88.4001C464.2 87.3001 465.6 86.5001 467.1 86.0001C468.7 85.4001 470.3 85.1001 472.2 85.1001C474 85.1001 475.7 85.4001 477.3 86.0001C478.9 86.6001 480.2 87.4001 481.3 88.4001C482.4 89.5001 483.3 90.7001 484 92.2001C484.7 93.7001 485 95.4001 485 97.3001ZM479 97.3001C479 96.3001 478.8 95.3001 478.5 94.5001C478.2 93.6001 477.7 92.9001 477.1 92.2001C476.5 91.6001 475.8 91.1001 475 90.7001C474.2 90.3001 473.3 90.2001 472.3 90.2001C471.3 90.2001 470.4 90.4001 469.6 90.7001C468.8 91.1001 468.1 91.6001 467.5 92.2001C466.9 92.8001 466.5 93.6001 466.1 94.5001C465.8 95.4001 465.6 96.3001 465.6 97.3001C465.6 98.4001 465.8 99.3001 466.1 100.2C466.4 101.1 466.9 101.9 467.5 102.5C468.1 103.1 468.8 103.6 469.6 104C470.4 104.4 471.3 104.5 472.3 104.5C473.3 104.5 474.2 104.3 475 104C475.8 103.6 476.5 103.1 477.1 102.5C477.7 101.9 478.2 101.1 478.5 100.2C478.8 99.3001 479 98.3001 479 97.3001Z" fill="white"/>
<path d="M489.3 109V85.7001H494.9V104.1H504V109H489.3Z" fill="white"/>
<path d="M531.1 97.3001C531.1 99.1001 530.8 100.8 530.1 102.4C529.5 103.9 528.6 105.2 527.4 106.3C526.3 107.4 524.9 108.2 523.4 108.8C521.8 109.4 520.1 109.7 518.3 109.7C516.5 109.7 514.8 109.4 513.2 108.8C511.6 108.2 510.3 107.4 509.2 106.3C508.1 105.2 507.2 103.9 506.5 102.4C505.9 100.9 505.6 99.2001 505.6 97.3001C505.6 95.4001 505.9 93.8001 506.5 92.2001C507.1 90.7001 508 89.4001 509.2 88.4001C510.3 87.3001 511.7 86.5001 513.2 86.0001C514.7 85.4001 516.4 85.1001 518.3 85.1001C520.1 85.1001 521.8 85.4001 523.4 86.0001C525 86.6001 526.3 87.4001 527.4 88.4001C528.5 89.5001 529.4 90.7001 530.1 92.2001C530.7 93.7001 531.1 95.4001 531.1 97.3001ZM525 97.3001C525 96.3001 524.8 95.3001 524.5 94.5001C524.2 93.6001 523.7 92.9001 523.1 92.2001C522.5 91.6001 521.8 91.1001 521 90.7001C520.2 90.3001 519.3 90.2001 518.3 90.2001C517.3 90.2001 516.4 90.4001 515.6 90.7001C514.8 91.1001 514.1 91.6001 513.5 92.2001C512.9 92.8001 512.4 93.6001 512.1 94.5001C511.8 95.4001 511.6 96.3001 511.6 97.3001C511.6 98.4001 511.8 99.3001 512.1 100.2C512.4 101.1 512.9 101.9 513.5 102.5C514.1 103.1 514.8 103.6 515.6 104C516.4 104.4 517.3 104.5 518.3 104.5C519.3 104.5 520.2 104.3 521 104C521.8 103.6 522.5 103.1 523.1 102.5C523.7 101.9 524.2 101.1 524.5 100.2C524.9 99.3001 525 98.3001 525 97.3001Z" fill="white"/>
<path d="M551.9 109.1C550.4 109.5 548.7 109.7 546.9 109.7C545 109.7 543.3 109.4 541.7 108.8C540.1 108.2 538.8 107.4 537.6 106.3C536.5 105.2 535.6 103.9 535 102.4C534.4 100.9 534 99.2 534 97.4C534 95.5 534.3 93.8 535 92.3C535.7 90.8 536.5 89.5 537.7 88.4C538.8 87.3 540.2 86.5 541.7 85.9C543.2 85.3 544.9 85 546.7 85C548.5 85 550.3 85.3 551.8 85.8C553.4 86.4 554.7 87.1 555.7 88.1L552.1 92.1C551.5 91.5 550.8 90.9 549.9 90.5C549 90.1 548 89.9 546.8 89.9C545.8 89.9 544.9 90.1 544.1 90.4C543.3 90.8 542.5 91.3 541.9 91.9C541.3 92.6 540.8 93.3 540.5 94.2C540.2 95.1 540 96.1 540 97.1C540 98.2 540.2 99.2 540.5 100.1C540.8 101 541.3 101.8 541.9 102.4C542.5 103 543.2 103.6 544.1 103.9C545 104.3 546 104.4 547.2 104.4C547.9 104.4 548.5 104.4 549.1 104.2C549.7 104.1 550.2 103.9 550.8 103.7V99.8H546.4V95.3H556V107.6C554.8 108.2 553.4 108.7 551.9 109.1Z" fill="white"/>
<path d="M572.1 99.2001V109H566.5V99.2001L557.7 85.7001H564.5L569.5 94.3001L574.5 85.7001H581.1L572.1 99.2001Z" fill="white"/>
<path d="M361.9 65.1C361.4 66.3 360.8 67.2 359.9 68.1C359 68.9 358 69.6001 356.7 70.0001C355.5 70.5001 354.1 70.7 352.6 70.7C351.1 70.7 349.7 70.5001 348.4 70.0001C347.2 69.5001 346.1 68.9 345.3 68.1C344.4 67.3 343.8 66.3 343.3 65.1C342.8 63.9 342.6 62.7 342.6 61.3V46.8H348.2V60.8C348.2 61.4 348.3 62 348.4 62.6C348.6 63.2 348.8 63.7 349.2 64.1C349.5 64.5 350 64.9 350.6 65.2C351.2 65.5 351.8 65.6 352.6 65.6C353.4 65.6 354.1 65.5 354.6 65.2C355.2 64.9 355.6 64.6 356 64.1C356.4 63.7 356.6 63.1 356.8 62.6C357 62 357 61.4 357 60.8V46.8H362.6V61.3C362.6 62.7 362.3 64 361.9 65.1Z" fill="white"/>
<path d="M382.6 70.1L373.2 54.9001H373.1L373.3 70.1H367.8V46.8H374.2L383.6 62.0001H383.7L383.6 46.8H389V70.1H382.6Z" fill="white"/>
<path d="M400.1 46.8H394.4V70.1H400.1V46.8Z" fill="white"/>
<path d="M417.3 70.1H411.6L402.8 46.8H409.1L414.5 63.3H414.7L420 46.8H426.3L417.3 70.1Z" fill="white"/>
<path d="M429 70.1V46.8H444.6V51.5001H434.4V55.9001H444.1V60.5001H434.4V65.3H445.2V70.1H429Z" fill="white"/>
<path d="M462.3 70.1L457.2 60.9001H455.3V70.1H449.8V46.8H458.7C459.8 46.8 460.9 46.9 462 47.1C463.1 47.3 464 47.7 464.9 48.3C465.7 48.9 466.4 49.6001 466.9 50.5001C467.4 51.4001 467.7 52.5001 467.7 53.9001C467.7 55.5001 467.3 56.8001 466.4 57.9001C465.5 59.0001 464.4 59.7 462.8 60.2L468.9 70.2H462.3V70.1ZM462 53.9001C462 53.4001 461.9 52.9 461.6 52.6C461.4 52.3 461.1 52 460.7 51.8C460.3 51.6 459.9 51.5001 459.5 51.4001C459.1 51.3001 458.6 51.3 458.2 51.3H455.2V56.7H457.9C458.4 56.7 458.8 56.7 459.3 56.6C459.8 56.5 460.2 56.4 460.6 56.2C461 56 461.3 55.7 461.6 55.3C461.9 55 462 54.5001 462 53.9001Z" fill="white"/>
<path d="M484.6 52.9001C484.1 52.3001 483.5 51.8001 482.7 51.4001C481.9 51.0001 481.2 50.9001 480.4 50.9001C480 50.9001 479.6 50.9001 479.3 51.0001C478.9 51.1001 478.6 51.2001 478.3 51.4001C478 51.6001 477.7 51.8001 477.5 52.1001C477.3 52.4001 477.2 52.8001 477.2 53.2001C477.2 53.6001 477.3 53.9001 477.4 54.2001C477.6 54.5001 477.8 54.7001 478.1 54.9001C478.4 55.1001 478.8 55.3001 479.2 55.4001C479.6 55.6001 480.1 55.7001 480.7 55.9001C481.5 56.2001 482.3 56.5001 483.2 56.8001C484.1 57.1001 484.8 57.5001 485.5 58.1001C486.2 58.6001 486.8 59.3001 487.2 60.1001C487.7 60.9001 487.9 61.8001 487.9 63.0001C487.9 64.3001 487.7 65.5001 487.2 66.5001C486.7 67.5001 486 68.3001 485.2 68.9001C484.4 69.5001 483.4 70.0001 482.3 70.3001C481.2 70.6001 480.1 70.8001 479 70.8001C477.3 70.8001 475.7 70.5001 474.2 69.9001C472.6 69.3001 471.3 68.5001 470.3 67.4001L474 63.6001C474.6 64.3001 475.3 64.9001 476.3 65.4001C477.2 65.9001 478.2 66.1001 479.1 66.1001C479.5 66.1001 479.9 66.1001 480.3 66.0001C480.7 65.9001 481 65.8001 481.3 65.6001C481.6 65.4001 481.8 65.1001 482 64.8001C482.2 64.5001 482.3 64.1001 482.3 63.6001C482.3 63.2001 482.2 62.8001 482 62.5001C481.8 62.2001 481.5 61.9001 481.1 61.7001C480.7 61.4001 480.2 61.2001 479.6 61.0001C479 60.8001 478.3 60.6001 477.5 60.3001C476.8 60.1001 476 59.8001 475.3 59.4001C474.6 59.1001 474 58.6001 473.4 58.1001C472.8 57.6001 472.4 57.0001 472 56.2001C471.7 55.5001 471.5 54.6001 471.5 53.5001C471.5 52.2001 471.8 51.1001 472.3 50.2001C472.8 49.3001 473.5 48.5001 474.4 47.9001C475.3 47.3001 476.2 46.9001 477.3 46.6001C478.4 46.3001 479.5 46.2001 480.6 46.2001C481.9 46.2001 483.3 46.4001 484.6 46.9001C486 47.4001 487.2 48.1001 488.2 49.0001L484.6 52.9001Z" fill="white"/>
<path d="M498 46.8H492.3V70.1H498V46.8Z" fill="white"/>
<path d="M513.2 51.6V70.1H507.6V51.6H501V46.8H519.8V51.6H513.2Z" fill="white"/>
<path d="M535.8 60.2V70.1H530.1V60.2L521.4 46.8H528.2L533.2 55.4001L538.2 46.8H544.7L535.8 60.2Z" fill="white"/>
<path d="M580.4 58.4001C580.4 60.2001 580.1 61.9001 579.4 63.5001C578.8 65.0001 577.9 66.3001 576.7 67.4001C575.6 68.5001 574.2 69.3001 572.7 69.9001C571.1 70.5001 569.4 70.8001 567.6 70.8001C565.8 70.8001 564.1 70.5001 562.5 69.9001C561 69.3001 559.6 68.5001 558.5 67.4001C557.4 66.3001 556.5 65.0001 555.8 63.5001C555.2 62.0001 554.9 60.3001 554.9 58.4001C554.9 56.5001 555.2 54.9001 555.8 53.3001C556.4 51.8001 557.3 50.5001 558.5 49.5001C559.6 48.4001 561 47.6001 562.5 47.1001C564 46.5001 565.7 46.2001 567.6 46.2001C569.4 46.2001 571.1 46.5001 572.7 47.1001C574.3 47.7001 575.6 48.5001 576.7 49.5001C577.8 50.6001 578.7 51.8001 579.4 53.3001C580 54.8001 580.4 56.5001 580.4 58.4001ZM574.3 58.4001C574.3 57.4001 574.1 56.4001 573.8 55.6001C573.5 54.7001 573 54.0001 572.4 53.3001C571.8 52.7001 571.1 52.2001 570.3 51.8001C569.5 51.4001 568.6 51.3001 567.6 51.3001C566.6 51.3001 565.7 51.5001 564.9 51.8001C564.1 52.2001 563.4 52.7001 562.8 53.3001C562.2 53.9001 561.7 54.7001 561.4 55.6001C561.1 56.5001 560.9 57.4001 560.9 58.4001C560.9 59.5001 561.1 60.4001 561.4 61.3001C561.7 62.2001 562.2 63.0001 562.8 63.6001C563.4 64.2001 564.1 64.7001 564.9 65.1001C565.7 65.5001 566.6 65.6001 567.6 65.6001C568.6 65.6001 569.5 65.4001 570.3 65.1001C571.1 64.7001 571.8 64.2001 572.4 63.6001C573 63.0001 573.5 62.2001 573.8 61.3001C574.2 60.4001 574.3 59.4001 574.3 58.4001Z" fill="white"/>
<path d="M590.2 51.6V56.4001H599.2V61.0001H590.2V70.1H584.6V46.8H600V51.6H590.2Z" fill="white"/>
<path d="M54.4 28.7V109H29.3V28.7H0V7.80005H83.7V28.7H54.4Z" fill="white"/>
<path d="M179.3 87.5001C177.2 92.5001 174.2 96.8001 170.3 100.4C166.4 104 161.7 106.8 156.1 108.8C150.6 110.8 144.4 111.8 137.7 111.8C130.9 111.8 124.7 110.8 119.2 108.8C113.7 106.8 109.1 104 105.3 100.4C101.5 96.8001 98.5999 92.5001 96.4999 87.5001C94.3999 82.5001 93.3999 76.9 93.3999 70.8V7.80005H118.3V68.8C118.3 71.6 118.7 74.2 119.4 76.7C120.1 79.2 121.3 81.4 122.8 83.3C124.3 85.3 126.3 86.8001 128.8 87.9001C131.3 89.0001 134.3 89.6 137.8 89.6C141.3 89.6 144.3 89.0001 146.8 87.9001C149.3 86.8001 151.3 85.2 152.9 83.3C154.5 81.3 155.6 79.1 156.3 76.7C157 74.2 157.3 71.6 157.3 68.8V7.80005H182.4V70.8C182.4 77 181.4 82.5001 179.3 87.5001Z" fill="white"/>
<path d="M197.9 124.6L248.8 0H230.6L179.8 124.6H197.9Z" fill="white"/>
<path d="M273.5 36C252.6 36 235.6 53 235.6 73.9C235.6 94.8 252.6 111.8 273.5 111.8C286.9 111.8 300.6 105.9 308.1 95.3L290.9 88.3C286.3 93.4 280.1 95.4 273.5 95.4C263.9 95.4 255.7 89.1 253 80.3H310.8C311.2 78.2 311.4 76.1 311.4 73.9C311.4 52.9 294.4 36 273.5 36ZM273.5 52.3C282.5 52.3 290.2 57.8 293.4 65.6H253.6C256.8 57.9 264.5 52.3 273.5 52.3Z" fill="white"/>
</svg>
